<svg width="328" height="212" viewBox="0 0 328 212" fill="none" xmlns="http://www.w3.org/2000/svg">
<g filter="url(#filter0_d_107_138)">
<g clip-path="url(#clip0_107_138)">
<rect x="24" y="16" width="280" height="168" rx="16" fill="#111827"/>
<ellipse cx="238.501" cy="86.5011" rx="67.0078" ry="104.486" transform="rotate(-45 238.501 86.5011)" fill="#A855F7"/>
<path opacity="0.5" d="M71.3137 35.5681C48.4621 24.6708 25.7021 20.2368 6.1245 22.8681C-13.4531 25.4995 -28.8995 35.0686 -38.1171 50.2762C-47.3348 65.4837 -49.8769 85.5926 -45.3984 107.872C-40.9198 130.152 -29.6376 153.522 -13.0838 174.81C3.46997 196.097 24.4931 214.27 47.1306 226.861C69.7681 239.452 92.9229 245.85 113.451 245.187C133.979 244.524 150.884 236.832 161.873 223.155C172.861 209.478 177.399 190.479 174.87 168.739L64.0001 133.682L71.3137 35.5681Z" fill="#A855F7"/>
<ellipse cx="192.96" cy="27.9602" rx="38.7249" ry="60.3263" transform="rotate(-45 192.96 27.9602)" fill="#2DD4BF" fill-opacity="0.8"/>
<ellipse cx="24" cy="160" rx="38.7249" ry="60.3263" transform="rotate(-45 24 160)" fill="#2DD4BF" fill-opacity="0.64"/>
<ellipse cx="268.36" cy="132.723" rx="64.7259" ry="62.4069" transform="rotate(-45 268.36 132.723)" fill="#2DD4BF"/>
<g filter="url(#filter1_b_107_138)">
<rect x="24" y="16" width="280" height="168" fill="#111827" fill-opacity="0.4"/>
</g>
<path d="M50.0104 113.952H52.6824V111.648C52.6824 111.349 52.6931 110.997 52.7144 110.592C52.7358 110.187 52.7518 109.835 52.7624 109.536H52.6984C52.5704 109.803 52.4371 110.064 52.2984 110.32C52.1598 110.576 52.0158 110.843 51.8664 111.12L50.0104 113.952ZM52.6824 118V115.376H48.1864V114.128L52.2184 107.824H54.4104V113.952H55.6904V115.376H54.4104V118H52.6824Z" fill="#F9FAFB"/>
<path d="M62.5864 118C62.6504 116.795 62.7784 115.717 62.9704 114.768C63.1624 113.808 63.4558 112.896 63.8504 112.032C64.2451 111.168 64.7678 110.283 65.4184 109.376H60.6024V107.824H67.4344V108.944C66.8371 109.68 66.3518 110.384 65.9784 111.056C65.6158 111.728 65.3278 112.411 65.1144 113.104C64.9118 113.787 64.7624 114.528 64.6664 115.328C64.5704 116.117 64.5011 117.008 64.4584 118H62.5864Z" fill="#F9FAFB"/>
<path d="M73.0824 118V116.496H75.3544V109.808H73.4824V108.656C73.9838 108.56 74.4211 108.448 74.7944 108.32C75.1678 108.181 75.5144 108.016 75.8344 107.824H77.2104V116.496H79.2104V118H73.0824Z" fill="#F9FAFB"/>
<path d="M88.1864 113.04C87.8984 113.04 87.5944 113.131 87.2744 113.312C86.9544 113.483 86.6504 113.781 86.3624 114.208C86.4584 115.115 86.6771 115.771 87.0184 116.176C87.3598 116.581 87.7758 116.784 88.2664 116.784C88.6931 116.784 89.0504 116.619 89.3384 116.288C89.6371 115.947 89.7864 115.467 89.7864 114.848C89.7864 114.251 89.6424 113.803 89.3544 113.504C89.0771 113.195 88.6878 113.04 88.1864 113.04ZM88.2984 118.192C87.6371 118.192 87.0238 118.016 86.4584 117.664C85.8931 117.312 85.4398 116.768 85.0984 116.032C84.7678 115.296 84.6024 114.357 84.6024 113.216C84.6024 111.893 84.7891 110.827 85.1624 110.016C85.5464 109.195 86.0424 108.592 86.6504 108.208C87.2584 107.824 87.9091 107.632 88.6024 107.632C89.2211 107.632 89.7544 107.744 90.2024 107.968C90.6504 108.192 91.0238 108.464 91.3224 108.784L90.3304 109.904C90.1491 109.68 89.9091 109.499 89.6104 109.36C89.3224 109.211 89.0238 109.136 88.7144 109.136C88.2878 109.136 87.8984 109.253 87.5464 109.488C87.1944 109.723 86.9064 110.117 86.6824 110.672C86.4691 111.216 86.3464 111.957 86.3144 112.896C86.6131 112.523 86.9651 112.229 87.3704 112.016C87.7758 111.803 88.1598 111.696 88.5224 111.696C89.4078 111.696 90.1224 111.957 90.6664 112.48C91.2211 112.992 91.4984 113.781 91.4984 114.848C91.4984 115.52 91.3491 116.107 91.0504 116.608C90.7624 117.109 90.3784 117.499 89.8984 117.776C89.4184 118.053 88.8851 118.192 88.2984 118.192Z" fill="#F9FAFB"/>
<path d="M114.677 118.192C114.016 118.192 113.424 118.075 112.901 117.84C112.379 117.595 111.968 117.264 111.669 116.848C111.371 116.432 111.221 115.947 111.221 115.392C111.221 114.763 111.408 114.235 111.781 113.808C112.155 113.381 112.581 113.04 113.061 112.784V112.72C112.667 112.443 112.331 112.112 112.053 111.728C111.787 111.333 111.653 110.869 111.653 110.336C111.653 109.781 111.787 109.307 112.053 108.912C112.32 108.507 112.683 108.192 113.141 107.968C113.611 107.744 114.139 107.632 114.725 107.632C115.643 107.632 116.368 107.888 116.901 108.4C117.445 108.901 117.717 109.563 117.717 110.384C117.717 110.885 117.573 111.339 117.285 111.744C116.997 112.149 116.688 112.475 116.357 112.72V112.784C116.827 113.051 117.237 113.387 117.589 113.792C117.941 114.197 118.117 114.741 118.117 115.424C118.117 115.947 117.973 116.416 117.685 116.832C117.397 117.248 116.997 117.579 116.485 117.824C115.973 118.069 115.371 118.192 114.677 118.192ZM115.349 112.256C115.627 111.979 115.835 111.696 115.973 111.408C116.123 111.12 116.197 110.816 116.197 110.496C116.197 110.048 116.064 109.68 115.797 109.392C115.531 109.093 115.163 108.944 114.693 108.944C114.299 108.944 113.968 109.067 113.701 109.312C113.435 109.557 113.301 109.899 113.301 110.336C113.301 110.677 113.392 110.965 113.573 111.2C113.755 111.424 114 111.621 114.309 111.792C114.629 111.952 114.976 112.107 115.349 112.256ZM114.709 116.88C115.2 116.88 115.6 116.747 115.909 116.48C116.229 116.203 116.389 115.829 116.389 115.36C116.389 114.987 116.277 114.683 116.053 114.448C115.84 114.213 115.547 114.011 115.173 113.84C114.811 113.659 114.4 113.477 113.941 113.296C113.621 113.531 113.355 113.808 113.141 114.128C112.939 114.448 112.837 114.805 112.837 115.2C112.837 115.701 113.019 116.107 113.381 116.416C113.744 116.725 114.187 116.88 114.709 116.88Z" fill="#F9FAFB"/>
<path d="M126.661 118.192C125.605 118.192 124.763 117.733 124.133 116.816C123.515 115.899 123.205 114.581 123.205 112.864C123.205 111.147 123.515 109.845 124.133 108.96C124.763 108.075 125.605 107.632 126.661 107.632C127.717 107.632 128.555 108.075 129.173 108.96C129.803 109.845 130.117 111.147 130.117 112.864C130.117 114.581 129.803 115.899 129.173 116.816C128.555 117.733 127.717 118.192 126.661 118.192ZM126.661 116.752C126.992 116.752 127.285 116.629 127.541 116.384C127.797 116.128 127.995 115.717 128.133 115.152C128.283 114.587 128.357 113.824 128.357 112.864C128.357 111.904 128.283 111.147 128.133 110.592C127.995 110.037 127.797 109.648 127.541 109.424C127.285 109.189 126.992 109.072 126.661 109.072C126.341 109.072 126.053 109.189 125.797 109.424C125.541 109.648 125.339 110.037 125.189 110.592C125.04 111.147 124.965 111.904 124.965 112.864C124.965 113.824 125.04 114.587 125.189 115.152C125.339 115.717 125.541 116.128 125.797 116.384C126.053 116.629 126.341 116.752 126.661 116.752Z" fill="#F9FAFB"/>
<path d="M138.405 118.192C137.584 118.192 136.891 118.053 136.325 117.776C135.771 117.488 135.312 117.147 134.949 116.752L135.829 115.568C136.139 115.877 136.491 116.144 136.885 116.368C137.28 116.581 137.733 116.688 138.245 116.688C138.8 116.688 139.248 116.555 139.589 116.288C139.941 116.011 140.117 115.632 140.117 115.152C140.117 114.8 140.027 114.496 139.845 114.24C139.675 113.973 139.371 113.771 138.933 113.632C138.507 113.493 137.904 113.424 137.125 113.424V112.08C138.128 112.08 138.821 111.925 139.205 111.616C139.589 111.307 139.781 110.917 139.781 110.448C139.781 110.021 139.648 109.691 139.381 109.456C139.115 109.211 138.747 109.088 138.277 109.088C137.883 109.088 137.52 109.179 137.189 109.36C136.859 109.531 136.539 109.76 136.229 110.048L135.285 108.912C135.723 108.528 136.187 108.219 136.677 107.984C137.179 107.749 137.733 107.632 138.341 107.632C139.323 107.632 140.117 107.867 140.725 108.336C141.333 108.795 141.637 109.456 141.637 110.32C141.637 110.885 141.477 111.365 141.157 111.76C140.848 112.144 140.416 112.443 139.861 112.656V112.72C140.459 112.88 140.96 113.173 141.365 113.6C141.771 114.027 141.973 114.576 141.973 115.248C141.973 115.867 141.808 116.395 141.477 116.832C141.157 117.269 140.725 117.605 140.181 117.84C139.648 118.075 139.056 118.192 138.405 118.192Z" fill="#F9FAFB"/>
<path d="M148.853 110.96C148.853 111.557 148.992 112.011 149.269 112.32C149.557 112.629 149.957 112.784 150.469 112.784C150.768 112.784 151.077 112.693 151.397 112.512C151.728 112.32 152.027 112.016 152.293 111.6C152.197 110.704 151.979 110.053 151.637 109.648C151.296 109.243 150.875 109.04 150.373 109.04C149.957 109.04 149.6 109.205 149.301 109.536C149.003 109.867 148.853 110.341 148.853 110.96ZM150.037 118.192C149.429 118.192 148.901 118.08 148.453 117.856C148.005 117.632 147.627 117.36 147.317 117.04L148.309 115.92C148.501 116.144 148.741 116.331 149.029 116.48C149.328 116.619 149.632 116.688 149.941 116.688C150.368 116.688 150.757 116.571 151.109 116.336C151.461 116.101 151.749 115.712 151.973 115.168C152.197 114.613 152.32 113.867 152.341 112.928C152.043 113.291 151.691 113.579 151.285 113.792C150.88 114.005 150.491 114.112 150.117 114.112C149.243 114.112 148.528 113.856 147.973 113.344C147.429 112.821 147.157 112.027 147.157 110.96C147.157 110.277 147.301 109.691 147.589 109.2C147.888 108.699 148.277 108.315 148.757 108.048C149.248 107.771 149.781 107.632 150.357 107.632C151.019 107.632 151.627 107.808 152.181 108.16C152.747 108.512 153.195 109.056 153.525 109.792C153.867 110.517 154.037 111.451 154.037 112.592C154.037 113.904 153.851 114.976 153.477 115.808C153.104 116.629 152.613 117.232 152.005 117.616C151.397 118 150.741 118.192 150.037 118.192Z" fill="#F9FAFB"/>
<path d="M177.328 118.192C176.272 118.192 175.429 117.733 174.8 116.816C174.181 115.899 173.872 114.581 173.872 112.864C173.872 111.147 174.181 109.845 174.8 108.96C175.429 108.075 176.272 107.632 177.328 107.632C178.384 107.632 179.221 108.075 179.84 108.96C180.469 109.845 180.784 111.147 180.784 112.864C180.784 114.581 180.469 115.899 179.84 116.816C179.221 117.733 178.384 118.192 177.328 118.192ZM177.328 116.752C177.658 116.752 177.952 116.629 178.208 116.384C178.464 116.128 178.661 115.717 178.8 115.152C178.949 114.587 179.024 113.824 179.024 112.864C179.024 111.904 178.949 111.147 178.8 110.592C178.661 110.037 178.464 109.648 178.208 109.424C177.952 109.189 177.658 109.072 177.328 109.072C177.008 109.072 176.72 109.189 176.464 109.424C176.208 109.648 176.005 110.037 175.856 110.592C175.706 111.147 175.632 111.904 175.632 112.864C175.632 113.824 175.706 114.587 175.856 115.152C176.005 115.717 176.208 116.128 176.464 116.384C176.72 116.629 177.008 116.752 177.328 116.752Z" fill="#F9FAFB"/>
<path d="M185.84 118V116.928C186.789 116.011 187.605 115.195 188.288 114.48C188.981 113.755 189.514 113.099 189.888 112.512C190.261 111.915 190.448 111.36 190.448 110.848C190.448 110.315 190.304 109.888 190.016 109.568C189.728 109.248 189.312 109.088 188.768 109.088C188.373 109.088 188.01 109.2 187.68 109.424C187.36 109.648 187.061 109.915 186.784 110.224L185.76 109.2C186.229 108.699 186.714 108.315 187.216 108.048C187.717 107.771 188.314 107.632 189.008 107.632C189.989 107.632 190.768 107.915 191.344 108.48C191.93 109.045 192.224 109.803 192.224 110.752C192.224 111.349 192.053 111.963 191.712 112.592C191.381 113.211 190.933 113.845 190.368 114.496C189.813 115.147 189.2 115.829 188.528 116.544C188.794 116.523 189.082 116.501 189.392 116.48C189.701 116.448 189.978 116.432 190.224 116.432H192.72V118H185.84Z" fill="#F9FAFB"/>
<circle opacity="0.5" cx="201.333" cy="112" r="2" fill="#F9FAFB"/>
<circle opacity="0.5" cx="213.333" cy="112" r="2" fill="#F9FAFB"/>
<circle opacity="0.5" cx="240" cy="112" r="2" fill="#F9FAFB"/>
<circle opacity="0.5" cx="252" cy="112" r="2" fill="#F9FAFB"/>
<circle opacity="0.5" cx="264" cy="112" r="2" fill="#F9FAFB"/>
<circle opacity="0.5" cx="276" cy="112" r="2" fill="#F9FAFB"/>
<path opacity="0.5" d="M51.808 157.168C51.164 157.168 50.5667 157.047 50.016 156.804C49.4653 156.552 48.9893 156.221 48.588 155.81L49.288 154.998C49.6147 155.343 49.9973 155.623 50.436 155.838C50.884 156.043 51.346 156.146 51.822 156.146C52.4287 156.146 52.9 156.011 53.236 155.74C53.572 155.46 53.74 155.096 53.74 154.648C53.74 154.331 53.67 154.079 53.53 153.892C53.3993 153.705 53.2173 153.547 52.984 153.416C52.76 153.285 52.5033 153.155 52.214 153.024L50.898 152.45C50.6087 152.329 50.3193 152.17 50.03 151.974C49.75 151.778 49.512 151.526 49.316 151.218C49.1293 150.91 49.036 150.532 49.036 150.084C49.036 149.617 49.1573 149.202 49.4 148.838C49.652 148.465 49.9973 148.175 50.436 147.97C50.8747 147.755 51.3693 147.648 51.92 147.648C52.4707 147.648 52.9793 147.755 53.446 147.97C53.9127 148.175 54.3093 148.446 54.636 148.782L54.006 149.538C53.726 149.267 53.4133 149.057 53.068 148.908C52.732 148.749 52.3493 148.67 51.92 148.67C51.4067 148.67 50.9913 148.791 50.674 149.034C50.366 149.277 50.212 149.603 50.212 150.014C50.212 150.303 50.2867 150.546 50.436 150.742C50.5947 150.929 50.7907 151.083 51.024 151.204C51.2573 151.325 51.4953 151.437 51.738 151.54L53.04 152.1C53.3947 152.249 53.712 152.431 53.992 152.646C54.2813 152.851 54.51 153.108 54.678 153.416C54.846 153.715 54.93 154.093 54.93 154.55C54.93 155.035 54.804 155.479 54.552 155.88C54.3 156.272 53.9407 156.585 53.474 156.818C53.0073 157.051 52.452 157.168 51.808 157.168ZM59.3845 157.168C58.7778 157.168 58.2272 157.028 57.7325 156.748C57.2378 156.459 56.8458 156.048 56.5565 155.516C56.2672 154.984 56.1225 154.349 56.1225 153.612C56.1225 152.865 56.2672 152.226 56.5565 151.694C56.8552 151.162 57.2378 150.751 57.7045 150.462C58.1712 150.173 58.6612 150.028 59.1745 150.028C60.0425 150.028 60.7098 150.317 61.1765 150.896C61.6525 151.475 61.8905 152.249 61.8905 153.22C61.8905 153.341 61.8858 153.463 61.8765 153.584C61.8765 153.696 61.8672 153.794 61.8485 153.878H57.2565C57.3032 154.597 57.5272 155.171 57.9285 155.6C58.3392 156.029 58.8712 156.244 59.5245 156.244C59.8512 156.244 60.1498 156.197 60.4205 156.104C60.7005 156.001 60.9665 155.871 61.2185 155.712L61.6245 156.468C61.3352 156.655 61.0038 156.818 60.6305 156.958C60.2665 157.098 59.8512 157.168 59.3845 157.168ZM57.2425 153.052H60.8825C60.8825 152.361 60.7332 151.839 60.4345 151.484C60.1452 151.12 59.7345 150.938 59.2025 150.938C58.7265 150.938 58.2972 151.125 57.9145 151.498C57.5412 151.862 57.3172 152.38 57.2425 153.052ZM65.5598 157.168C64.8412 157.168 64.3138 156.944 63.9778 156.496C63.6418 156.039 63.4738 155.376 63.4738 154.508V150.196H64.6358V154.354C64.6358 154.989 64.7338 155.451 64.9298 155.74C65.1352 156.029 65.4618 156.174 65.9098 156.174C66.2645 156.174 66.5772 156.085 66.8478 155.908C67.1278 155.721 67.4265 155.427 67.7438 155.026V150.196H68.8918V157H67.9398L67.8418 155.936H67.7998C67.4825 156.309 67.1465 156.608 66.7918 156.832C66.4372 157.056 66.0265 157.168 65.5598 157.168ZM73.9898 157V150.196H74.9418L75.0398 151.176H75.0818C75.4085 150.849 75.7538 150.579 76.1178 150.364C76.4818 150.14 76.8971 150.028 77.3638 150.028C78.0825 150.028 78.6051 150.257 78.9318 150.714C79.2678 151.162 79.4358 151.82 79.4358 152.688V157H78.2878V152.842C78.2878 152.207 78.1851 151.745 77.9798 151.456C77.7745 151.167 77.4478 151.022 76.9998 151.022C76.6545 151.022 76.3418 151.111 76.0618 151.288C75.7911 151.465 75.4831 151.727 75.1378 152.072V157H73.9898ZM84.292 157.168C83.7414 157.168 83.2234 157.028 82.738 156.748C82.262 156.468 81.8747 156.062 81.576 155.53C81.2867 154.998 81.142 154.359 81.142 153.612C81.142 152.847 81.2867 152.198 81.576 151.666C81.8747 151.134 82.262 150.728 82.738 150.448C83.2234 150.168 83.7414 150.028 84.292 150.028C84.852 150.028 85.37 150.168 85.846 150.448C86.322 150.728 86.7047 151.134 86.994 151.666C87.2927 152.198 87.442 152.847 87.442 153.612C87.442 154.359 87.2927 154.998 86.994 155.53C86.7047 156.062 86.322 156.468 85.846 156.748C85.37 157.028 84.852 157.168 84.292 157.168ZM84.292 156.216C84.88 156.216 85.3514 155.978 85.706 155.502C86.07 155.017 86.252 154.387 86.252 153.612C86.252 152.828 86.07 152.193 85.706 151.708C85.3514 151.223 84.88 150.98 84.292 150.98C83.7134 150.98 83.242 151.223 82.878 151.708C82.514 152.193 82.332 152.828 82.332 153.612C82.332 154.387 82.514 155.017 82.878 155.502C83.242 155.978 83.7134 156.216 84.292 156.216ZM89.2339 157V150.196H90.1859L90.2839 151.176H90.3259C90.6246 150.849 90.9513 150.579 91.3059 150.364C91.6606 150.14 92.0386 150.028 92.4399 150.028C92.9626 150.028 93.3686 150.145 93.6579 150.378C93.9566 150.602 94.1759 150.919 94.3159 151.33C94.6706 150.947 95.0299 150.635 95.3939 150.392C95.7579 150.149 96.1453 150.028 96.5559 150.028C97.2559 150.028 97.7739 150.257 98.1099 150.714C98.4553 151.162 98.6279 151.82 98.6279 152.688V157H97.4799V152.842C97.4799 152.207 97.3773 151.745 97.1719 151.456C96.9666 151.167 96.6493 151.022 96.2199 151.022C95.7159 151.022 95.1466 151.372 94.5119 152.072V157H93.3639V152.842C93.3639 152.207 93.2613 151.745 93.0559 151.456C92.8506 151.167 92.5286 151.022 92.0899 151.022C91.5859 151.022 91.0166 151.372 90.3819 152.072V157H89.2339ZM103.599 157.168C102.993 157.168 102.442 157.028 101.947 156.748C101.453 156.459 101.061 156.048 100.771 155.516C100.482 154.984 100.337 154.349 100.337 153.612C100.337 152.865 100.482 152.226 100.771 151.694C101.07 151.162 101.453 150.751 101.919 150.462C102.386 150.173 102.876 150.028 103.389 150.028C104.257 150.028 104.925 150.317 105.391 150.896C105.867 151.475 106.105 152.249 106.105 153.22C106.105 153.341 106.101 153.463 106.091 153.584C106.091 153.696 106.082 153.794 106.063 153.878H101.471C101.518 154.597 101.742 155.171 102.143 155.6C102.554 156.029 103.086 156.244 103.739 156.244C104.066 156.244 104.365 156.197 104.635 156.104C104.915 156.001 105.181 155.871 105.433 155.712L105.839 156.468C105.55 156.655 105.219 156.818 104.845 156.958C104.481 157.098 104.066 157.168 103.599 157.168ZM101.457 153.052H105.097C105.097 152.361 104.948 151.839 104.649 151.484C104.36 151.12 103.949 150.938 103.417 150.938C102.941 150.938 102.512 151.125 102.129 151.498C101.756 151.862 101.532 152.38 101.457 153.052ZM112.157 157.168C111.588 157.168 111.112 157 110.729 156.664C110.356 156.319 110.169 155.843 110.169 155.236C110.169 154.489 110.501 153.92 111.163 153.528C111.835 153.127 112.895 152.847 114.341 152.688C114.341 152.399 114.299 152.123 114.215 151.862C114.141 151.601 114.001 151.391 113.795 151.232C113.599 151.064 113.315 150.98 112.941 150.98C112.549 150.98 112.181 151.055 111.835 151.204C111.49 151.353 111.182 151.521 110.911 151.708L110.463 150.91C110.781 150.705 111.168 150.509 111.625 150.322C112.092 150.126 112.596 150.028 113.137 150.028C113.968 150.028 114.57 150.285 114.943 150.798C115.317 151.302 115.503 151.979 115.503 152.828V157H114.551L114.453 156.188H114.411C114.094 156.449 113.744 156.678 113.361 156.874C112.988 157.07 112.587 157.168 112.157 157.168ZM112.493 156.244C112.82 156.244 113.128 156.165 113.417 156.006C113.707 155.847 114.015 155.623 114.341 155.334V153.444C113.212 153.584 112.419 153.794 111.961 154.074C111.513 154.354 111.289 154.713 111.289 155.152C111.289 155.535 111.406 155.815 111.639 155.992C111.873 156.16 112.157 156.244 112.493 156.244ZM121.956 159.87V157.448L122.012 156.216C121.741 156.477 121.429 156.701 121.074 156.888C120.729 157.075 120.36 157.168 119.968 157.168C119.119 157.168 118.437 156.86 117.924 156.244C117.411 155.619 117.154 154.741 117.154 153.612C117.154 152.875 117.289 152.24 117.56 151.708C117.84 151.167 118.204 150.751 118.652 150.462C119.109 150.173 119.595 150.028 120.108 150.028C120.5 150.028 120.845 150.098 121.144 150.238C121.443 150.369 121.746 150.569 122.054 150.84H122.082L122.194 150.196H123.118V159.87H121.956ZM120.22 156.202C120.817 156.202 121.396 155.889 121.956 155.264V151.708C121.667 151.447 121.387 151.265 121.116 151.162C120.855 151.05 120.584 150.994 120.304 150.994C119.94 150.994 119.609 151.106 119.31 151.33C119.021 151.545 118.787 151.848 118.61 152.24C118.433 152.623 118.344 153.075 118.344 153.598C118.344 154.41 118.507 155.049 118.834 155.516C119.161 155.973 119.623 156.202 120.22 156.202ZM127.398 157.168C126.679 157.168 126.152 156.944 125.816 156.496C125.48 156.039 125.312 155.376 125.312 154.508V150.196H126.474V154.354C126.474 154.989 126.572 155.451 126.768 155.74C126.973 156.029 127.3 156.174 127.748 156.174C128.102 156.174 128.415 156.085 128.686 155.908C128.966 155.721 129.264 155.427 129.582 155.026V150.196H130.73V157H129.778L129.68 155.936H129.638C129.32 156.309 128.984 156.608 128.63 156.832C128.275 157.056 127.864 157.168 127.398 157.168ZM133.025 157V150.196H134.173V157H133.025ZM133.613 148.796C133.389 148.796 133.202 148.731 133.053 148.6C132.913 148.46 132.843 148.273 132.843 148.04C132.843 147.816 132.913 147.634 133.053 147.494C133.202 147.354 133.389 147.284 133.613 147.284C133.837 147.284 134.019 147.354 134.159 147.494C134.308 147.634 134.383 147.816 134.383 148.04C134.383 148.273 134.308 148.46 134.159 148.6C134.019 148.731 133.837 148.796 133.613 148.796Z" fill="#F9FAFB"/>
<circle opacity="0.5" cx="227" cy="152" r="2" fill="#F9FAFB"/>
<circle opacity="0.5" cx="239" cy="152" r="2" fill="#F9FAFB"/>
<path opacity="0.5" d="M249.182 159.24L251.996 147.06H253.34L250.526 159.24H249.182Z" fill="#F9FAFB"/>
<circle opacity="0.5" cx="264" cy="152" r="2" fill="#F9FAFB"/>
<circle opacity="0.5" cx="276" cy="152" r="2" fill="#F9FAFB"/>
<g opacity="0.8" clip-path="url(#clip1_107_138)">
<path d="M77.6293 53.024L77.3293 51.524H73.9773L73.444 53.0133L70.7573 53.0187C72.0364 49.9429 73.3181 46.8682 74.6027 43.7947C74.8213 43.2733 75.2093 43.008 75.7813 43.0107C76.2187 43.0147 76.932 43.0147 77.9227 43.012L80 53.02L77.6293 53.024ZM74.732 49.4693H76.892L76.0853 45.7093L74.732 49.4693ZM57.4133 43.0093L60.1147 43.012L55.9387 53.0253L53.204 53.0227C52.5163 50.3778 51.8372 47.7306 51.1667 45.0813C51.0333 44.5533 50.7693 44.184 50.2613 44.0093C49.511 43.7579 48.7571 43.517 48 43.2867L48 43.0133H52.316C53.0627 43.0133 53.4987 43.3747 53.6387 44.116C53.78 44.8587 54.1347 46.7493 54.7053 49.788L57.4133 43.0093ZM63.8267 43.012L61.6907 53.0227L59.12 53.02L61.2533 43.0093L63.8267 43.012ZM69.04 42.8267C69.8093 42.8267 70.7787 43.0667 71.336 43.2867L70.8853 45.3627C70.3813 45.16 69.552 44.8867 68.8547 44.896C67.8413 44.9133 67.2147 45.3387 67.2147 45.7467C67.2147 46.4107 68.3027 46.7453 69.4227 47.4707C70.7013 48.2973 70.8693 49.04 70.8533 49.8467C70.836 51.5213 69.4227 53.1733 66.4413 53.1733C65.0813 53.1533 64.5907 53.0387 63.4813 52.6453L63.9507 50.4787C65.08 50.952 65.5587 51.1027 66.524 51.1027C67.408 51.1027 68.1667 50.7453 68.1733 50.1227C68.1787 49.68 67.9067 49.46 66.9147 48.9133C65.9227 48.3653 64.5307 47.6067 64.5493 46.084C64.572 44.1347 66.4187 42.8267 69.0413 42.8267H69.04Z" fill="#F9FAFB"/>
</g>
<g opacity="0.8">
<path d="M268 38.25C266.072 38.25 264.187 38.8218 262.583 39.8932C260.98 40.9645 259.73 42.4873 258.992 44.2688C258.254 46.0504 258.061 48.0108 258.437 49.9021C258.814 51.7934 259.742 53.5307 261.106 54.8943C262.469 56.2579 264.207 57.1865 266.098 57.5627C267.989 57.9389 269.95 57.7458 271.731 57.0078C273.513 56.2699 275.035 55.0202 276.107 53.4168C277.178 51.8134 277.75 49.9284 277.75 48C277.747 45.415 276.719 42.9366 274.891 41.1087C273.063 39.2808 270.585 38.2527 268 38.25ZM268 56.25C266.368 56.25 264.773 55.7661 263.417 54.8596C262.06 53.9531 261.002 52.6646 260.378 51.1571C259.754 49.6496 259.59 47.9908 259.909 46.3905C260.227 44.7902 261.013 43.3202 262.166 42.1664C263.32 41.0126 264.79 40.2268 266.391 39.9085C267.991 39.5902 269.65 39.7536 271.157 40.378C272.665 41.0024 273.953 42.0598 274.86 43.4165C275.766 44.7733 276.25 46.3683 276.25 48C276.248 50.1873 275.378 52.2843 273.831 53.8309C272.284 55.3775 270.187 56.2475 268 56.25ZM265.1 45.3994C265.524 46.2007 265.746 47.0935 265.746 48C265.746 48.9065 265.524 49.7993 265.1 50.6006C265.055 50.6898 264.993 50.7691 264.917 50.8339C264.842 50.8988 264.754 50.9478 264.658 50.9782C264.563 51.0085 264.463 51.0196 264.364 51.0108C264.264 51.002 264.168 50.9734 264.08 50.9267C263.991 50.88 263.913 50.8162 263.85 50.739C263.787 50.6618 263.74 50.5728 263.711 50.4771C263.683 50.3814 263.674 50.281 263.685 50.1818C263.696 50.0826 263.726 49.9866 263.775 49.8994C264.089 49.3155 264.253 48.6629 264.253 48C264.253 47.3371 264.089 46.6845 263.775 46.1006C263.687 45.9253 263.671 45.7224 263.73 45.5355C263.79 45.3486 263.921 45.1925 264.094 45.1008C264.268 45.009 264.47 44.9889 264.658 45.0447C264.846 45.1005 265.005 45.2279 265.1 45.3994ZM270.35 42.3994C271.273 44.1231 271.755 46.0478 271.755 48.0028C271.755 49.9578 271.273 51.8826 270.35 53.6063C270.25 53.7702 270.092 53.8896 269.906 53.9399C269.721 53.9902 269.523 53.9676 269.354 53.8766C269.185 53.7856 269.058 53.6333 268.997 53.451C268.937 53.2687 268.949 53.0702 269.031 52.8966C269.838 51.3905 270.26 49.7085 270.26 48C270.26 46.2915 269.838 44.6095 269.031 43.1034C268.938 42.9279 268.917 42.7223 268.975 42.5319C269.033 42.3415 269.164 42.1819 269.34 42.0881C269.515 41.9944 269.721 41.9742 269.911 42.0321C270.102 42.0899 270.261 42.221 270.355 42.3966L270.35 42.3994ZM267.725 43.8994C268.399 45.162 268.751 46.5709 268.751 48.0019C268.751 49.4328 268.399 50.8417 267.725 52.1044C267.68 52.1931 267.618 52.2718 267.541 52.3361C267.465 52.4004 267.377 52.4488 267.282 52.4787C267.187 52.5086 267.087 52.5192 266.988 52.51C266.889 52.5008 266.793 52.472 266.705 52.4252C266.617 52.3784 266.539 52.3145 266.476 52.2374C266.413 52.1603 266.366 52.0713 266.338 51.9759C266.31 51.8804 266.301 51.7802 266.312 51.6812C266.323 51.5823 266.353 51.4864 266.402 51.3994C266.959 50.3538 267.251 49.1869 267.251 48.0019C267.251 46.8168 266.959 45.65 266.402 44.6044C266.353 44.5173 266.323 44.4215 266.312 44.3225C266.301 44.2235 266.31 44.1234 266.338 44.0279C266.366 43.9324 266.413 43.8435 266.476 43.7663C266.539 43.6892 266.617 43.6254 266.705 43.5786C266.793 43.5318 266.889 43.5029 266.988 43.4937C267.087 43.4845 267.187 43.4952 267.282 43.5251C267.377 43.5549 267.465 43.6034 267.541 43.6677C267.618 43.7319 267.68 43.8107 267.725 43.8994Z" fill="#F9FAFB"/>
</g>
</g>
<rect x="24.5" y="16.5" width="279" height="167" rx="15.5" stroke="#374151"/>
</g>
<defs>
<filter id="filter0_d_107_138" x="0" y="-4" width="328" height="216" filterUnits="userSpaceOnUse" color-interpolation-filters="sRGB">
<feFlood flood-opacity="0" result="BackgroundImageFix"/>
<feColorMatrix in="SourceAlpha" type="matrix" values="0 0 0 0 0 0 0 0 0 0 0 0 0 0 0 0 0 0 127 0" result="hardAlpha"/>
<feOffset dy="4"/>
<feGaussianBlur stdDeviation="12"/>
<feComposite in2="hardAlpha" operator="out"/>
<feColorMatrix type="matrix" values="0 0 0 0 0 0 0 0 0 0 0 0 0 0 0 0 0 0 0.25 0"/>
<feBlend mode="normal" in2="BackgroundImageFix" result="effect1_dropShadow_107_138"/>
<feBlend mode="normal" in="SourceGraphic" in2="effect1_dropShadow_107_138" result="shape"/>
</filter>
<filter id="filter1_b_107_138" x="-24" y="-32" width="376" height="264" filterUnits="userSpaceOnUse" color-interpolation-filters="sRGB">
<feFlood flood-opacity="0" result="BackgroundImageFix"/>
<feGaussianBlur in="BackgroundImageFix" stdDeviation="24"/>
<feComposite in2="SourceAlpha" operator="in" result="effect1_backgroundBlur_107_138"/>
<feBlend mode="normal" in="SourceGraphic" in2="effect1_backgroundBlur_107_138" result="shape"/>
</filter>
<clipPath id="clip0_107_138">
<rect x="24" y="16" width="280" height="168" rx="16" fill="white"/>
</clipPath>
<clipPath id="clip1_107_138">
<rect width="32" height="32" fill="white" transform="translate(48 32)"/>
</clipPath>
</defs>
</svg>
